<svg xmlns="http://www.w3.org/2000/svg" viewBox="0 0 980 256" role="img" aria-label="renderfact">
  <title>renderfact lockup (dark)</title>
  <g transform="translate(16,16) scale(0.875)">
    <path fill="#4F46E5" fill-rule="evenodd" d="M64,28 H192 A36,36 0 0 1 228,64 V192 A36,36 0 0 1 192,228 H64 A36,36 0 0 1 28,192 V64 A36,36 0 0 1 64,28 Z M74,84 H182 A10,10 0 0 1 192,94 A10,10 0 0 1 182,104 H74 A10,10 0 0 1 64,94 A10,10 0 0 1 74,84 Z M74,122 H130 A10,10 0 0 1 140,132 A10,10 0 0 1 130,142 H74 A10,10 0 0 1 64,132 A10,10 0 0 1 74,122 Z M74,160 H182 A10,10 0 0 1 192,170 A10,10 0 0 1 182,180 H74 A10,10 0 0 1 64,170 A10,10 0 0 1 74,160 Z"/>
    <path fill="#FFFFFF" fill-opacity="0.42" d="M160,122 H182 A10,10 0 0 1 192,132 A10,10 0 0 1 182,142 H160 A10,10 0 0 1 150,132 A10,10 0 0 1 160,122 Z"/>
  </g>
  <g fill="#E2E8F0"><path transform="translate(272.0 164.0) scale(0.05762 -0.05762)" d="M138 0V1118H390V931H402Q432 1028 507.0 1080.5Q582 1133 678 1133Q700 1133 727.0 1131.0Q754 1129 773 1126V887Q757 892 721.0 896.0Q685 900 650 900Q578 900 520.5 869.0Q463 838 430.5 783.5Q398 729 398 658V0Z"/><path transform="translate(318.8 164.0) scale(0.05762 -0.05762)" d="M632 -23Q463 -23 341.5 48.0Q220 119 154.5 248.0Q89 377 89 552Q89 725 153.5 855.0Q218 985 336.5 1058.5Q455 1132 615 1132Q717 1132 809.5 1099.0Q902 1066 973.5 997.0Q1045 928 1085.5 821.5Q1126 715 1126 568V486H347Q351 394 383 328Q419 255 484.0 218.0Q549 181 635 181Q692 181 738.5 197.5Q785 214 819.0 246.5Q853 279 870 326L1109 277Q1082 187 1017.0 119.5Q952 52 854.5 14.5Q757 -23 632 -23ZM348 663H873Q867 725 846 777Q817 848 759.5 888.0Q702 928 616.0 928.0Q530 928 470.0 887.5Q410 847 379 780Q354 726 348 663Z"/><path transform="translate(388.6 164.0) scale(0.05762 -0.05762)" d="M398 655V0H138V1118H384L387 896Q432 1001 505 1060Q596 1132 733 1132Q848 1132 934.0 1083.0Q1020 1034 1067.5 940.0Q1115 846 1115 711V0H855V671Q855 783 797.0 847.0Q739 911 637 911Q568 911 514.0 881.0Q460 851 429.0 793.5Q398 736 398 655Z"/><path transform="translate(460.8 164.0) scale(0.05762 -0.05762)" d="M550 -20Q418 -20 313.5 47.5Q209 115 149.0 244.0Q89 373 89 557Q89 743 150.5 871.5Q212 1000 316.5 1066.0Q421 1132 549 1132Q649 1132 712.5 1098.5Q776 1065 813.5 1019.0Q851 973 870 933H881V1490H1141V0H886V177H870Q850 137 811.5 91.0Q773 45 710.0 12.5Q647 -20 550 -20ZM621 194Q706 194 765.0 239.5Q824 285 855.0 367.0Q886 449 886 558Q886 667 855.5 747.5Q825 828 765.5 873.0Q706 918 621 918Q533 918 474.0 871.5Q415 825 385.0 743.5Q355 662 355 558Q355 454 385.0 371.5Q415 289 474.5 241.5Q534 194 621 194Z"/><path transform="translate(534.4 164.0) scale(0.05762 -0.05762)" d="M632 -23Q463 -23 341.5 48.0Q220 119 154.5 248.0Q89 377 89 552Q89 725 153.5 855.0Q218 985 336.5 1058.5Q455 1132 615 1132Q717 1132 809.5 1099.0Q902 1066 973.5 997.0Q1045 928 1085.5 821.5Q1126 715 1126 568V486H347Q351 394 383 328Q419 255 484.0 218.0Q549 181 635 181Q692 181 738.5 197.5Q785 214 819.0 246.5Q853 279 870 326L1109 277Q1082 187 1017.0 119.5Q952 52 854.5 14.5Q757 -23 632 -23ZM348 663H873Q867 725 846 777Q817 848 759.5 888.0Q702 928 616.0 928.0Q530 928 470.0 887.5Q410 847 379 780Q354 726 348 663Z"/><path transform="translate(604.2 164.0) scale(0.05762 -0.05762)" d="M138 0V1118H390V931H402Q432 1028 507.0 1080.5Q582 1133 678 1133Q700 1133 727.0 1131.0Q754 1129 773 1126V887Q757 892 721.0 896.0Q685 900 650 900Q578 900 520.5 869.0Q463 838 430.5 783.5Q398 729 398 658V0Z"/></g>
  <g fill="#818CF8"><path transform="translate(640.0 164.0) scale(0.05762 -0.05762)" d="M726 1118V914H484V0H225V914H20V1118H225V1225Q225 1337 271.5 1411.0Q318 1485 397.5 1522.5Q477 1560 572 1560Q641 1560 694.0 1549.0Q747 1538 772 1529L719 1327Q702 1332 677.5 1337.5Q653 1343 620 1343Q547 1343 515.5 1307.0Q484 1271 484 1205V1118Z"/><path transform="translate(685.9 164.0) scale(0.05762 -0.05762)" d="M450 -23Q344 -23 259.0 15.5Q174 54 125.0 129.0Q76 204 76 314Q76 409 111.5 471.0Q147 533 207.5 570.0Q268 607 344.0 626.0Q420 645 502 653Q599 664 660.0 672.0Q721 680 749.5 698.0Q778 716 778 754V759Q778 814 756.0 852.5Q734 891 690.5 911.5Q647 932 583 932Q518 932 470.5 912.0Q423 892 393.0 860.0Q363 828 349 791L108 840Q141 939 210.0 1003.5Q279 1068 374.5 1100.0Q470 1132 582 1132Q661 1132 741.5 1113.5Q822 1095 889.0 1051.0Q956 1007 997.0 933.0Q1038 859 1038 747V0H789V154H779Q754 107 710.5 66.5Q667 26 602.5 1.5Q538 -23 450 -23ZM517 170Q598 170 656.5 202.0Q715 234 747.5 286.5Q780 339 780 401V533Q767 523 736.5 514.0Q706 505 668.5 498.0Q631 491 594.5 486.0Q558 481 533 478Q475 470 428.0 452.0Q381 434 354.5 401.5Q328 369 328 317Q328 269 352.5 236.5Q377 204 419.5 187.0Q462 170 517 170Z"/><path transform="translate(753.6 164.0) scale(0.05762 -0.05762)" d="M623 -23Q460 -23 340.0 49.5Q220 122 154.5 251.5Q89 381 89 553Q89 727 154.5 857.5Q220 988 340.0 1060.0Q460 1132 623 1132Q716 1132 796.0 1108.0Q876 1084 939.0 1038.5Q1002 993 1044.5 928.0Q1087 863 1105 781L862 730Q851 773 830.5 808.5Q810 844 780.0 869.0Q750 894 711.0 907.5Q672 921 625 921Q534 921 474.0 872.5Q414 824 384.0 741.5Q354 659 354 554Q354 451 384.0 368.0Q414 285 474.0 236.5Q534 188 625 188Q673 188 712.5 202.0Q752 216 782.5 242.0Q813 268 834.0 305.0Q855 342 865 387L1108 336Q1090 252 1047.5 186.0Q1005 120 941.5 73.5Q878 27 797.5 2.0Q717 -23 623 -23Z"/><path transform="translate(822.4 164.0) scale(0.05762 -0.05762)" d="M655 1118V914H439V315Q439 254 465.0 225.5Q491 197 550 197Q568 197 597.5 201.5Q627 206 645 210L686 9Q643 -4 598.0 -9.5Q553 -15 512 -15Q351 -15 265.0 65.0Q179 145 179 293V914H20V1118H179V1384H439V1118Z"/></g>
</svg>
